<?xml version="1.0" standalone="no"?>
<!DOCTYPE svg PUBLIC "-//W3C//DTD SVG 20010904//EN"
 "http://www.w3.org/TR/2001/REC-SVG-20010904/DTD/svg10.dtd">
<svg version="1.0" xmlns="http://www.w3.org/2000/svg"
 width="210.000000pt" height="175.000000pt" viewBox="0 0 210.000000 175.000000"
 preserveAspectRatio="xMidYMid meet">

<g transform="translate(0.000000,175.000000) scale(0.100000,-0.100000)"
fill="#000000" stroke="none">
<path d="M2 1500 c2 -200 6 -252 17 -259 8 -5 10 -14 6 -22 -6 -9 -4 -11 8 -6
9 3 16 3 16 -1 -3 -18 3 -46 8 -35 3 10 10 10 24 2 11 -5 17 -14 14 -20 -4 -5
-1 -9 4 -9 6 0 11 -7 11 -15 0 -9 6 -12 18 -8 9 3 14 2 10 -2 -5 -5 1 -14 12
-22 11 -8 20 -20 20 -27 0 -12 20 -26 35 -26 3 0 11 12 20 28 15 26 15 26 9 2
-4 -14 -9 -32 -11 -40 -4 -13 -4 -13 6 0 6 8 18 39 27 69 11 38 18 50 24 41 6
-9 11 -2 15 23 12 63 20 49 21 -36 1 -58 9 -103 26 -154 13 -40 22 -77 18 -83
-6 -11 -49 30 -68 65 -11 20 -11 19 -12 -2 0 -12 5 -25 11 -29 6 -3 22 -31 35
-60 13 -30 28 -54 34 -54 5 0 10 -5 10 -11 0 -7 -10 -5 -25 5 -36 24 -31 12
11 -27 l36 -33 -15 -76 c-9 -42 -20 -125 -24 -185 -4 -68 -9 -97 -13 -78 -5
23 -9 11 -19 -55 -10 -70 -44 -217 -67 -292 -3 -12 0 -18 10 -18 10 0 17 15
22 45 9 64 21 65 16 2 l-4 -52 43 -12 c37 -10 45 -9 52 3 6 11 13 12 29 3 17
-9 18 -13 7 -20 -11 -7 -10 -9 4 -9 21 0 37 36 38 88 1 20 5 48 10 62 5 16 6
-4 3 -54 -7 -88 1 -102 45 -81 58 28 71 28 71 1 0 -36 17 -33 25 4 8 34 24 40
32 10 3 -11 10 -20 15 -20 5 0 6 -4 3 -10 -3 -5 -1 -10 4 -10 13 0 13 4 2 53
-8 35 -7 39 15 47 13 5 24 14 24 20 0 6 5 8 12 4 7 -4 8 -3 4 5 -4 6 0 19 10
28 13 14 16 31 12 98 -4 73 -8 86 -35 121 -17 21 -53 86 -79 143 -39 85 -49
99 -56 82 -15 -41 -79 -15 -131 54 -30 39 -35 53 -40 121 -5 63 -2 85 13 115
10 21 21 76 25 121 l7 83 -26 -24 c-25 -24 -25 -22 9 47 33 68 49 123 22 76
-12 -22 -70 -74 -81 -74 -16 0 -3 37 21 64 l28 29 -33 -22 c-18 -13 -35 -21
-38 -18 -3 2 0 26 6 52 6 26 9 49 8 51 -2 1 -23 -11 -46 -27 -41 -28 -46 -24
-15 12 7 9 16 36 19 60 8 58 14 62 14 11 0 -23 4 -42 9 -42 11 0 69 146 100
247 12 41 41 101 66 139 25 37 45 68 45 70 0 2 -128 4 -285 4 l-286 0 3 -250z
m377 -149 c-6 -18 -13 -30 -15 -28 -2 2 1 18 7 36 6 18 13 30 15 28 2 -2 -1
-18 -7 -36z m-26 -204 c3 -34 9 -71 12 -82 6 -17 4 -17 -14 4 -16 18 -21 37
-21 82 0 78 16 76 23 -4z m47 -357 c0 -5 -2 -10 -4 -10 -3 0 -8 5 -11 10 -3 6
-1 10 4 10 6 0 11 -4 11 -10z m99 -284 c12 -60 31 -132 41 -159 11 -28 15 -46
9 -40 -17 17 -77 201 -86 262 -7 54 -7 55 -14 21 -6 -31 -7 -29 -8 19 l-1 54
18 -24 c10 -13 28 -73 41 -133z m-42 2 c-3 -8 -6 -5 -6 6 -1 11 2 17 5 13 3
-3 4 -12 1 -19z m-90 -250 c-3 -7 -5 -2 -5 12 0 14 2 19 5 13 2 -7 2 -19 0
-25z m110 0 c-3 -7 -5 -2 -5 12 0 14 2 19 5 13 2 -7 2 -19 0 -25z"/>
<path d="M872 1716 c-7 -19 -34 -63 -60 -98 -46 -63 -129 -224 -120 -234 3 -2
23 35 45 83 47 103 126 198 143 173 5 -8 10 -27 10 -42 0 -15 5 -49 11 -77 8
-40 7 -61 -7 -110 -15 -57 -18 -60 -38 -49 -18 10 -164 13 -173 4 -9 -9 -42
-226 -48 -318 -4 -60 -11 -106 -16 -103 -4 3 -5 13 -2 22 4 10 2 14 -5 9 -16
-10 -26 72 -20 168 4 59 3 73 -4 51 -5 -16 -12 -93 -15 -171 -9 -217 28 -396
98 -474 l30 -35 -26 37 c-43 60 -65 131 -71 231 l-6 92 29 -33 c32 -37 43 -41
36 -12 -3 13 0 20 8 20 8 0 24 3 37 6 18 5 22 2 22 -18 0 -34 7 -38 42 -26 27
10 33 8 48 -12 11 -15 19 -19 24 -11 11 17 39 14 33 -3 -4 -10 -1 -13 9 -9 7
3 14 0 14 -6 0 -19 22 -12 27 9 3 11 9 17 14 14 5 -3 9 3 10 13 0 10 3 13 6 6
8 -22 20 -14 16 11 -6 31 13 43 23 14 8 -27 32 -47 57 -48 10 0 16 -3 14 -7
-3 -5 5 -8 18 -8 13 0 21 3 18 8 -2 4 -11 7 -19 7 -8 0 -20 11 -26 25 -9 21
-7 30 18 67 l29 42 6 -60 c8 -81 16 -97 41 -83 17 9 19 8 13 -10 -8 -27 -1
-26 37 1 30 21 30 21 19 0 -6 -11 -16 -23 -23 -26 -7 -3 7 -4 32 0 25 3 54 5
65 5 30 0 58 22 96 78 34 51 53 59 72 30 14 -22 -12 -72 -43 -80 -14 -4 -19
-7 -12 -8 32 -3 6 -20 -48 -30 -57 -11 -87 -30 -62 -39 7 -2 12 -10 12 -18 0
-8 5 -14 10 -14 6 0 10 5 10 10 0 21 30 9 36 -15 7 -28 8 -29 33 -16 10 6 23
6 31 1 12 -7 11 -13 -5 -31 -11 -12 -14 -19 -7 -15 7 4 30 29 51 56 30 38 41
46 54 38 19 -10 22 -40 6 -70 -10 -18 -8 -20 23 -15 18 3 38 6 43 8 6 2 10 -1
10 -6 0 -5 -4 -9 -8 -7 -5 1 -6 -2 -2 -8 9 -14 -29 -73 -65 -104 -24 -20 -26
-25 -13 -28 26 -5 -24 -55 -67 -67 -25 -6 -29 -9 -12 -10 12 -1 22 -4 22 -8 0
-17 -103 -114 -139 -133 -22 -10 -72 -28 -112 -39 -41 -11 -85 -25 -99 -31
-24 -10 -24 -10 5 -6 25 4 33 0 46 -23 14 -24 28 -30 118 -49 56 -12 115 -22
130 -22 16 0 43 -3 60 -6 32 -7 33 -10 14 -61 -4 -10 14 -13 70 -13 l75 0 6
45 c7 46 30 62 39 28 4 -17 5 -17 6 0 1 14 11 17 64 17 84 0 156 -22 192 -60
26 -28 34 -30 97 -30 l68 0 0 875 0 875 -608 0 -608 0 -12 -34z m76 -374 c-5
-18 -13 -30 -19 -27 -5 4 -9 -9 -10 -27 0 -27 -2 -30 -9 -13 -5 12 -9 -34 -9
-123 -1 -78 -4 -141 -8 -141 -25 4 -35 -2 -25 -13 5 -7 12 -36 15 -64 l4 -52
-46 14 c-25 7 -63 18 -84 24 -22 6 -41 9 -45 6 -3 -3 1 -6 9 -6 8 0 2 -6 -12
-14 -34 -17 -109 -25 -109 -11 0 5 31 37 68 70 82 72 122 122 174 218 l39 72
-5 -50 c-9 -86 11 -1 24 105 7 52 19 111 28 130 l15 35 7 -50 c4 -27 3 -65 -2
-83z m-143 7 c51 -13 68 -28 55 -49 -7 -11 -16 -12 -42 -4 -18 6 -55 7 -83 2
-27 -4 -51 -5 -53 -3 -2 2 -1 17 3 34 6 27 11 31 41 31 19 0 55 -5 79 -11z
m187 -76 l-10 -28 -11 29 c-7 16 -9 43 -5 59 l6 30 15 -31 c11 -23 12 -38 5
-59z m-182 -2 c0 -9 -112 -71 -129 -71 -6 0 -11 11 -11 25 0 20 8 29 33 40 35
16 107 20 107 6z m228 -27 c4 2 15 -13 25 -33 l18 -36 -30 32 c-18 19 -30 42
-30 55 l2 23 4 -23 c2 -12 7 -20 11 -18z m-98 -166 c0 -32 -4 -58 -10 -58 -6
0 -10 31 -10 73 0 50 3 67 10 57 5 -8 10 -41 10 -72z m-30 -127 c0 -10 2 -34
5 -52 4 -25 3 -29 -3 -14 -17 37 -24 85 -13 85 6 0 11 -8 11 -19z m579 -3 c-1
-13 -4 -33 -7 -45 -6 -19 -9 -20 -25 -9 -17 13 -17 15 0 45 21 36 33 40 32 9z
m-652 -150 c-3 -7 -5 -2 -5 12 0 14 2 19 5 13 2 -7 2 -19 0 -25z m785 -15 c5
-25 -3 -83 -11 -83 -3 1 -16 9 -29 20 l-23 19 22 31 c26 34 36 38 41 13z
m-217 -113 c-3 -5 -11 -10 -16 -10 -6 0 -7 5 -4 10 3 6 11 10 16 10 6 0 7 -4
4 -10z"/>
<path d="M835 1440 c-10 -11 -15 -23 -12 -27 7 -6 36 25 37 40 0 11 -6 8 -25
-13z"/>
<path d="M833 1403 c-7 -2 -13 -10 -13 -15 0 -6 3 -8 6 -5 4 3 15 2 26 -4 16
-9 19 -8 16 7 -3 19 -16 25 -35 17z"/>
<path d="M272 1105 c0 -16 2 -22 5 -12 2 9 2 23 0 30 -3 6 -5 -1 -5 -18z"/>
<path d="M170 1025 c0 -8 4 -15 10 -15 5 0 7 7 4 15 -4 8 -8 15 -10 15 -2 0
-4 -7 -4 -15z"/>
<path d="M226 1014 c-9 -9 -15 -23 -12 -31 3 -8 6 -23 6 -34 0 -18 48 -74 57
-66 1 2 -3 24 -11 50 -7 25 -11 49 -7 54 3 4 -2 1 -11 -6 -11 -8 -18 -9 -18
-3 0 6 7 15 15 19 8 5 11 13 6 21 -6 11 -12 10 -25 -4z m33 -97 c1 -5 -3 -5
-9 -2 -5 3 -10 16 -9 28 0 21 1 21 9 2 5 -11 9 -24 9 -28z"/>
<path d="M231 574 c0 -11 3 -14 6 -6 3 7 2 16 -1 19 -3 4 -6 -2 -5 -13z"/>
<path d="M211 484 c0 -11 3 -14 6 -6 3 7 2 16 -1 19 -3 4 -6 -2 -5 -13z"/>
<path d="M228 435 c-3 -14 -1 -25 3 -25 5 0 9 11 9 25 0 14 -2 25 -4 25 -2 0
-6 -11 -8 -25z"/>
<path d="M231 114 c0 -11 3 -14 6 -6 3 7 2 16 -1 19 -3 4 -6 -2 -5 -13z"/>
<path d="M1680 31 c0 -11 4 -22 9 -25 4 -3 6 6 3 19 -5 30 -12 33 -12 6z"/>
</g>
</svg>
